<?xml version="1.0" encoding="iso-8859-1"?>
<!-- Generator: Adobe Illustrator 19.0.0, SVG Export Plug-In . SVG Version: 6.00 Build 0)  -->
<svg version="1.1" id="Layer_1" xmlns="http://www.w3.org/2000/svg" xmlns:xlink="http://www.w3.org/1999/xlink" x="0px" y="0px"
	 viewBox="0 0 512 512" style="enable-background:new 0 0 512 512;" xml:space="preserve">
<polyline style="fill:#D6B31D;" points="272.267,334.168 255.993,282.357 242.739,240.052 223.204,177.675 246.407,167.088 
	246.396,167.088 298.744,334.168 "/>
<path style="fill:#E6E6E6;" d="M38.044,178.967l15.232,48.62c24.139-7.563,38.449-4.193,52.758-0.823l0.008,0.004
	c14.31,3.37,28.62,6.739,52.75-0.828l0.008,0.004c24.14-7.562,33.969-18.495,43.797-29.427c5.86-6.516,11.716-13.043,20.606-18.841
	c6.023-3.935,13.435-7.535,23.192-10.584l0.004-0.008L200.699,21.197l-0.004,0.008c-24.148,7.558-33.969,18.495-43.797,29.427
	c-9.834,10.94-19.659,21.864-43.797,29.427c-24.14,7.562-38.45,4.193-52.759,0.823c-14.318-3.374-28.628-6.743-52.768,0.819
	l15.236,48.633L38.044,178.967z"/>
<g>
	<path style="fill:#49618C;" d="M22.806,130.334l15.233,48.619c24.143-7.556,38.447-4.192,52.76-0.818l-15.233-48.619
		C61.243,126.142,46.949,122.768,22.806,130.334z"/>
	<path style="fill:#49618C;" d="M90.8,178.145l15.233,48.619l0.01,0.01c14.304,3.364,28.618,6.738,52.75-0.828l-15.233-48.619
		c-24.133,7.546-38.447,4.192-52.75,0.808H90.8V178.145z"/>
	<path style="fill:#49618C;" d="M60.333,80.887l15.233,48.629h0.01c14.304,3.374,28.608,6.738,52.75-0.828l-15.233-48.619v-0.01
		C88.961,87.624,74.647,84.25,60.333,80.887z"/>
	<path style="fill:#49618C;" d="M128.327,128.697l15.233,48.629l0.01-0.01c24.133-7.556,33.961-18.486,43.79-29.406v-0.01v-0.01
		l-15.233-48.619c-9.829,10.94-19.668,21.86-43.79,29.426C128.337,128.697,128.327,128.697,128.327,128.697z"/>
	<path style="fill:#49618C;" d="M156.894,50.632v0.01l15.233,48.619c9.829-10.93,19.658-21.87,43.8-29.436l-15.233-48.619
		C176.542,28.763,166.723,39.703,156.894,50.632z"/>
	<path style="fill:#49618C;" d="M187.361,147.9v0.01l15.233,48.609c5.869-6.516,11.718-13.041,20.607-18.839
		c6.021-3.94,13.435-7.536,23.193-10.586l0.01-0.01l-15.233-48.619h-0.01C207.018,126.031,197.2,136.95,187.361,147.9z"/>
</g>
<polyline style="fill:#EDD154;" points="213.253,334.168 265.6,167.088 265.589,167.088 288.792,177.675 269.256,240.052 
	256.004,282.357 239.73,334.168 "/>
<path style="fill:#E6E6E6;" d="M473.952,178.967l-15.232,48.62c-24.139-7.563-38.45-4.193-52.758-0.823l-0.008,0.004
	c-14.31,3.37-28.62,6.739-52.75-0.828l-0.008,0.004c-24.14-7.562-33.969-18.495-43.797-29.427
	c-5.86-6.516-11.716-13.043-20.606-18.841c-6.023-3.935-13.435-7.535-23.192-10.584l-0.004-0.008L311.3,21.197l0.004,0.008
	c24.148,7.558,33.969,18.495,43.797,29.427c9.834,10.94,19.659,21.864,43.797,29.427c24.14,7.562,38.45,4.193,52.759,0.823
	c14.318-3.374,28.628-6.743,52.768,0.819l-15.236,48.633L473.952,178.967z"/>
<g>
	<path style="fill:#49618C;" d="M489.19,130.334l-15.233,48.619c-24.143-7.556-38.447-4.192-52.76-0.818l15.233-48.619
		C450.754,126.142,465.048,122.768,489.19,130.334z"/>
	<path style="fill:#49618C;" d="M421.197,178.145l-15.233,48.619l-0.01,0.01c-14.304,3.364-28.618,6.738-52.75-0.828l15.233-48.619
		c24.133,7.546,38.447,4.192,52.75,0.808h0.01V178.145z"/>
	<path style="fill:#49618C;" d="M451.663,80.887l-15.233,48.629h-0.01c-14.304,3.374-28.608,6.738-52.75-0.828l15.233-48.619v-0.01
		C423.035,87.624,437.349,84.25,451.663,80.887z"/>
	<path style="fill:#49618C;" d="M383.669,128.697l-15.233,48.629l-0.01-0.01c-24.133-7.556-33.961-18.486-43.79-29.406v-0.01v-0.01
		l15.233-48.619c9.829,10.94,19.668,21.86,43.79,29.426C383.659,128.697,383.669,128.697,383.669,128.697z"/>
	<path style="fill:#49618C;" d="M355.102,50.632v0.01l-15.233,48.619c-9.829-10.93-19.658-21.87-43.8-29.436l15.233-48.619
		C335.455,28.763,345.273,39.703,355.102,50.632z"/>
	<path style="fill:#49618C;" d="M324.636,147.9v0.01l-15.233,48.609c-5.869-6.516-11.718-13.041-20.607-18.839
		c-6.021-3.94-13.435-7.536-23.193-10.586l-0.01-0.01l15.233-48.619h0.01C304.978,126.031,314.797,136.95,324.636,147.9z"/>
</g>
<path d="M511.137,78.192c-0.93-1.781-2.531-3.118-4.449-3.719c-26.126-8.184-42.406-4.349-56.771-0.964
	c-13.679,3.22-26.597,6.263-48.756-0.68c-22.167-6.945-31.037-16.813-40.449-27.283c-9.821-10.922-20.945-23.295-46.834-31.47
	c-0.972-0.354-2.023-0.509-3.099-0.436c-3.114,0.212-5.78,2.314-6.714,5.293l-48.068,153.459L207.931,18.933
	c-0.914-2.917-3.494-4.995-6.539-5.275c-1.086-0.099-2.156,0.037-3.147,0.378c-25.98,8.174-37.124,20.571-46.98,31.533
	c-9.391,10.448-18.263,20.317-40.429,27.261c-22.157,6.942-35.078,3.9-48.756,0.679c-14.364-3.384-30.645-7.222-56.77,0.965
	c-1.917,0.6-3.517,1.938-4.449,3.719s-1.116,3.858-0.516,5.775L46.05,229.851c1.252,3.993,5.502,6.213,9.494,4.965
	c22.062-6.911,34.967-3.926,48.578-0.721c0.063,0.016,0.125,0.032,0.189,0.046c8.017,1.888,16.628,3.915,27.216,3.915
	c8.309,0,17.834-1.25,29.24-4.796c0.101-0.027,0.202-0.057,0.302-0.088c26.12-8.183,37.301-20.618,47.165-31.59l0.072-0.08
	c3.516-3.91,6.913-7.685,10.904-11.239l15.594,49.773l-27.116,86.554H89.321c-4.184,0-7.576,3.392-7.576,7.576
	s3.392,7.576,7.576,7.576h243.455c4.184,0,7.576-3.392,7.576-7.576s-3.392-7.576-7.576-7.576h-28.466l-17.191-54.87
	c-1.251-3.993-5.502-6.216-9.494-4.965c-3.993,1.251-6.216,5.501-4.965,9.494l15.772,50.339h-10.638l-13.85-44.234l28.846-92.093
	c3.989,3.554,7.387,7.33,10.905,11.241l0.07,0.078c9.865,10.971,21.046,23.406,47.165,31.59c0.1,0.031,0.201,0.061,0.302,0.087
	c11.407,3.548,20.931,4.797,29.241,4.797c10.585,0,19.201-2.028,27.218-3.915c0.062-0.014,0.122-0.029,0.183-0.045
	c13.616-3.205,26.521-6.192,48.583,0.72c3.997,1.25,8.244-0.972,9.494-4.965l15.232-48.62l0,0l30.473-97.265
	C512.254,82.049,512.068,79.972,511.137,78.192z M440.565,90.952l-10.076,32.162c-10.654,2.408-21.478,4.087-37.245,0.357
	l10.695-34.136C419.009,93.042,430.587,92.59,440.565,90.952z M432.287,168.061l10.072-32.15
	c10.659-2.412,21.485-4.095,37.256-0.362l-10.694,34.132C453.847,165.971,442.266,166.423,432.287,168.061z M321.267,133.293
	c-7.257-7.042-16.51-14.023-31.014-19.58L300.95,79.57c15.083,5.935,23.013,13.497,30.392,21.567L321.267,133.293z M343.23,113.87
	c7.259,7.036,16.512,14.013,31.013,19.568l-10.695,34.136c-15.087-5.934-23.018-13.489-30.394-21.543L343.23,113.87z
	 M388.708,137.947c8.38,2.062,15.696,2.857,22.24,2.856c5.22,0,9.957-0.496,14.382-1.221l-10.074,32.156
	c-10.645,2.413-21.461,4.096-37.248,0.364L388.708,137.947z M389.479,84.806l-10.697,34.142
	c-15.084-5.934-23.015-13.489-30.393-21.548l10.076-32.163C365.725,72.274,374.978,79.25,389.479,84.806z M316.183,30.944
	c15.081,5.929,23.005,13.489,30.394,21.561l-10.074,32.156c-7.258-7.043-16.511-14.025-31.014-19.581L316.183,30.944z
	 M79.713,168.061c-9.978-1.638-21.56-2.09-36.634,1.62l-10.694-34.132c15.767-3.734,26.591-2.052,37.256,0.362L79.713,168.061z
	 M86.669,139.582c4.424,0.726,9.161,1.221,14.382,1.221c6.544,0,13.859-0.795,22.24-2.856l10.701,34.154
	c-15.784,3.733-26.601,2.049-37.248-0.365L86.669,139.582z M137.757,133.438c14.499-5.554,23.752-12.53,31.013-19.568l10.076,32.161
	c-7.376,8.055-15.308,15.608-30.395,21.543L137.757,133.438z M180.659,101.136c7.375-8.067,15.305-15.63,30.392-21.567
	l10.697,34.142c-14.505,5.557-23.758,12.539-31.014,19.58L180.659,101.136z M195.817,30.944l10.695,34.135
	c-14.502,5.556-23.755,12.538-31.013,19.581l-10.074-32.156C172.804,44.44,180.728,36.876,195.817,30.944z M153.533,65.235
	L163.61,97.4c-7.376,8.058-15.309,15.614-30.393,21.548l-10.697-34.141C137.016,79.252,146.269,72.277,153.533,65.235z
	 M108.061,89.335l10.695,34.136c-15.768,3.731-26.59,2.052-37.244-0.357L71.435,90.952C81.412,92.59,92.991,93.042,108.061,89.335z
	 M54.406,87.282l10.067,32.135c-10.096-1.692-21.483-2.128-36.63,1.635L17.148,86.914C32.919,83.183,43.744,84.87,54.406,87.282z
	 M58.313,218.311L47.617,184.17c15.768-3.732,26.595-2.05,37.256,0.361l10.076,32.162C84.97,215.056,73.39,214.602,58.313,218.311z
	 M111.979,220.367l-10.074-32.158c4.423,0.727,9.16,1.224,14.384,1.223c6.541,0,13.855-0.793,22.239-2.853l10.698,34.145
	C133.463,224.458,122.637,222.777,111.979,220.367z M163.686,216.199l-10.694-34.135c14.5-5.553,23.754-12.528,31.014-19.564
	l10.072,32.149C186.698,202.71,178.764,210.267,163.686,216.199z M205.964,181.905l-10.068-32.137
	c7.373-8.066,15.302-15.628,30.392-21.566l10.693,34.131c-6.667,2.541-12.572,5.51-17.909,8.996
	C213.887,174.711,209.685,178.282,205.964,181.905z M232.225,181.12c2.872-1.559,5.964-2.978,9.289-4.282l6.546,20.897
	l-5.314,16.964L232.225,181.12z M270.484,176.838c3.324,1.304,6.417,2.723,9.29,4.283l-45.607,145.472h-10.602L270.484,176.838z
	 M250.05,326.592l5.942-18.916l5.924,18.916H250.05z M292.934,171.333c-5.34-3.489-11.246-6.459-17.914-8.999l10.693-34.131
	c15.087,5.937,23.016,13.498,30.392,21.567l-10.068,32.136C302.315,178.283,298.115,174.712,292.934,171.333z M317.922,194.649
	l10.072-32.149c7.258,7.034,16.512,14.008,31.014,19.564l-10.695,34.135C333.236,210.267,325.302,202.71,317.922,194.649z
	 M362.775,220.725l10.698-34.145c8.381,2.061,15.695,2.854,22.237,2.854c5.225,0,9.962-0.497,14.388-1.224l-10.074,32.158
	C389.364,222.776,378.538,224.457,362.775,220.725z M453.686,218.311c-15.076-3.71-26.656-3.256-36.635-1.618l10.076-32.161
	c10.659-2.409,21.487-4.09,37.256-0.361L453.686,218.311z M484.157,121.051c-15.144-3.763-26.531-3.326-36.63-1.634l10.067-32.135
	c10.66-2.412,21.485-4.099,37.258-0.368L484.157,121.051z"/>
<path d="M136.77,437.067v-76.029c0-4.184-3.392-7.576-7.576-7.576c-4.184,0-7.576,3.392-7.576,7.576v76.029
	c0,4.184,3.392,7.576,7.576,7.576C133.379,444.643,136.77,441.251,136.77,437.067z"/>
<path d="M290.116,437.067v-76.029c0-4.184-3.392-7.576-7.576-7.576c-4.184,0-7.576,3.392-7.576,7.576v76.029
	c0,4.184,3.392,7.576,7.576,7.576C286.724,444.643,290.116,441.251,290.116,437.067z"/>
<path d="M186.08,408.415c4.184,0,7.576-3.392,7.576-7.576v-13.792l34.431,54.088c1.416,2.225,3.85,3.509,6.391,3.508
	c0.704,0,1.417-0.099,2.119-0.303c3.234-0.943,5.457-3.905,5.457-7.274v-76.029c0-4.184-3.392-7.576-7.576-7.576
	s-7.576,3.392-7.576,7.576v50.02l-34.431-54.088c-1.809-2.842-5.275-4.145-8.51-3.205c-3.234,0.943-5.457,3.905-5.457,7.274v39.802
	C178.504,405.024,181.896,408.415,186.08,408.415z"/>
<path d="M178.504,437.067c0,4.184,3.392,7.576,7.576,7.576c4.184,0,7.576-3.392,7.576-7.576v-10.973
	c0-4.184-3.392-7.576-7.576-7.576c-4.184,0-7.576,3.392-7.576,7.576V437.067z"/>
<path d="M463.107,353.461c-4.184,0-7.576,3.392-7.576,7.576v31.354h-33.246v-31.354c0-4.184-3.392-7.576-7.576-7.576
	s-7.576,3.392-7.576,7.576v76.029c0,4.184,3.392,7.576,7.576,7.576s7.576-3.392,7.576-7.576v-29.524h33.246v29.524
	c0,4.184,3.392,7.576,7.576,7.576c4.184,0,7.576-3.392,7.576-7.576v-76.029C470.683,356.853,467.291,353.461,463.107,353.461z"/>
<path d="M349.251,429.491h-21.367c-4.184,0-7.576,3.392-7.576,7.576c0,4.184,3.392,7.576,7.576,7.576h21.367
	c14.658,0,26.583-11.926,26.583-26.583s-11.926-26.583-26.583-26.583h-2.36c-6.303,0-11.431-5.129-11.431-11.431
	c0-6.302,5.129-11.431,11.431-11.431h21.367c4.184,0,7.576-3.392,7.576-7.576s-3.392-7.576-7.576-7.576h-21.367
	c-14.658,0-26.583,11.926-26.583,26.583c0,14.657,11.926,26.583,26.583,26.583h2.36c6.303,0,11.431,5.129,11.431,11.431
	C360.682,424.362,355.554,429.491,349.251,429.491z"/>
<path d="M74.782,389.918H56.47v-21.304h22.416c4.184,0,7.576-3.392,7.576-7.576c0-4.184-3.392-7.576-7.576-7.576H48.893
	c-4.184,0-7.576,3.392-7.576,7.576v76.029c0,4.184,3.392,7.576,7.576,7.576s7.576-3.392,7.576-7.576V405.07h18.312
	c4.184,0,7.576-3.392,7.576-7.576C82.358,393.31,78.966,389.918,74.782,389.918z"/>
<path d="M422.68,341.745c4.184,0,7.576-3.392,7.576-7.576s-3.392-7.576-7.576-7.576h-64.65c-4.184,0-7.576,3.392-7.576,7.576
	s3.392,7.576,7.576,7.576H422.68z"/>
<path d="M422.68,456.359H89.321c-4.184,0-7.576,3.392-7.576,7.576c0,4.184,3.392,7.576,7.576,7.576H422.68
	c4.184,0,7.576-3.392,7.576-7.576C430.256,459.751,426.864,456.359,422.68,456.359z"/>
<path d="M382.273,483.227H220.648c-4.184,0-7.576,3.392-7.576,7.576c0,4.184,3.392,7.576,7.576,7.576h161.625
	c4.184,0,7.576-3.392,7.576-7.576C389.85,486.619,386.457,483.227,382.273,483.227z"/>
<path d="M195.394,483.227h-65.667c-4.184,0-7.576,3.392-7.576,7.576c0,4.184,3.392,7.576,7.576,7.576h65.667
	c4.184,0,7.576-3.392,7.576-7.576C202.971,486.619,199.578,483.227,195.394,483.227z"/>
<g>
</g>
<g>
</g>
<g>
</g>
<g>
</g>
<g>
</g>
<g>
</g>
<g>
</g>
<g>
</g>
<g>
</g>
<g>
</g>
<g>
</g>
<g>
</g>
<g>
</g>
<g>
</g>
<g>
</g>
</svg>
