<?xml version="1.0" encoding="iso-8859-1"?>
<!-- Generator: Adobe Illustrator 19.0.0, SVG Export Plug-In . SVG Version: 6.00 Build 0)  -->
<svg version="1.1" id="Layer_1" xmlns="http://www.w3.org/2000/svg" xmlns:xlink="http://www.w3.org/1999/xlink" x="0px" y="0px"
	 viewBox="0 0 512 512" style="enable-background:new 0 0 512 512;" xml:space="preserve">
<g>
	<g>
		<path d="M511.137,78.191c-0.93-1.781-2.531-3.118-4.449-3.719c-26.126-8.184-42.406-4.349-56.771-0.964
			c-13.679,3.22-26.597,6.263-48.756-0.68c-22.167-6.945-31.037-16.813-40.449-27.283c-9.821-10.922-20.945-23.295-46.834-31.47
			c-0.972-0.354-2.023-0.509-3.099-0.436c-3.114,0.212-5.78,2.314-6.714,5.293l-48.068,153.459L207.931,18.933
			c-0.914-2.917-3.494-4.995-6.539-5.275c-1.086-0.099-2.156,0.037-3.147,0.378c-25.98,8.174-37.124,20.571-46.98,31.533
			c-9.391,10.448-18.263,20.317-40.428,27.261c-22.157,6.942-35.078,3.9-48.756,0.679c-14.364-3.384-30.645-7.222-56.77,0.965
			c-1.917,0.6-3.517,1.939-4.449,3.719c-0.931,1.781-1.116,3.858-0.516,5.775L46.05,229.851c1.252,3.993,5.502,6.214,9.494,4.965
			c22.062-6.911,34.967-3.926,48.578-0.721c0.063,0.016,0.125,0.032,0.189,0.047c8.017,1.888,16.628,3.915,27.216,3.915
			c8.309,0,17.834-1.25,29.24-4.796c0.101-0.027,0.202-0.057,0.302-0.088c26.12-8.183,37.301-20.618,47.165-31.59l0.072-0.08
			c3.516-3.91,6.914-7.685,10.904-11.239l15.594,49.773l-27.116,86.554H89.321c-4.184,0-7.576,3.392-7.576,7.576
			c0,4.184,3.392,7.576,7.576,7.576h243.455c4.184,0,7.576-3.392,7.576-7.576c0-4.184-3.392-7.576-7.576-7.576h-28.466
			l-17.191-54.87c-1.251-3.993-5.502-6.216-9.494-4.965c-3.993,1.251-6.216,5.501-4.965,9.494l15.772,50.339h-10.638l-13.85-44.234
			l28.846-92.093c3.989,3.554,7.387,7.33,10.905,11.241l0.07,0.078c9.865,10.971,21.046,23.406,47.165,31.59
			c0.1,0.031,0.201,0.061,0.302,0.087c11.407,3.548,20.931,4.797,29.241,4.797c10.585,0,19.201-2.028,27.218-3.915
			c0.062-0.014,0.122-0.029,0.183-0.045c13.616-3.205,26.521-6.192,48.583,0.72c3.997,1.25,8.244-0.972,9.494-4.965l15.232-48.62
			l30.473-97.265C512.254,82.049,512.068,79.972,511.137,78.191z M403.938,89.335c15.071,3.707,26.649,3.256,36.627,1.617
			l-10.076,32.162c-10.654,2.408-21.478,4.087-37.245,0.357L403.938,89.335z M358.466,65.237
			c7.259,7.037,16.512,14.013,31.013,19.569l-10.697,34.142c-15.084-5.934-23.015-13.489-30.393-21.548L358.466,65.237z
			 M374.243,133.438l-10.695,34.136c-15.087-5.934-23.018-13.489-30.394-21.543l10.075-32.161
			C350.489,120.906,359.742,127.883,374.243,133.438z M316.183,30.944c15.081,5.929,23.005,13.489,30.394,21.561l-10.074,32.156
			c-7.258-7.043-16.511-14.025-31.014-19.581L316.183,30.944z M300.95,79.57c15.083,5.935,23.013,13.497,30.392,21.567
			l-10.074,32.155c-7.257-7.042-16.51-14.023-31.014-19.58L300.95,79.57z M211.051,79.569l10.697,34.142
			c-14.505,5.557-23.758,12.539-31.014,19.58l-10.074-32.155C188.034,93.069,195.964,85.506,211.051,79.569z M195.817,30.944
			l10.695,34.135c-14.502,5.556-23.755,12.538-31.013,19.581l-10.074-32.156C172.804,44.44,180.728,36.876,195.817,30.944z
			 M178.846,146.032c-7.376,8.055-15.308,15.608-30.395,21.543l-10.695-34.136c14.499-5.554,23.752-12.53,31.013-19.568
			L178.846,146.032z M153.533,65.235L163.61,97.4c-7.376,8.058-15.309,15.614-30.393,21.548l-10.697-34.141
			C137.016,79.252,146.269,72.277,153.533,65.235z M108.061,89.335l10.695,34.136c-15.768,3.731-26.59,2.052-37.244-0.357
			L71.435,90.952C81.412,92.59,92.991,93.042,108.061,89.335z M17.148,86.914c15.771-3.732,26.595-2.045,37.258,0.368l10.067,32.135
			c-10.096-1.692-21.483-2.128-36.63,1.635L17.148,86.914z M43.079,169.681l-10.694-34.132c15.767-3.734,26.591-2.052,37.256,0.362
			l10.072,32.15C69.735,166.423,58.153,165.971,43.079,169.681z M58.313,218.311L47.616,184.17
			c15.768-3.732,26.595-2.05,37.256,0.361l10.076,32.162C84.97,215.056,73.39,214.602,58.313,218.311z M86.669,139.582
			c4.424,0.726,9.161,1.221,14.382,1.221c6.544,0,13.859-0.795,22.24-2.856l10.701,34.154c-15.784,3.733-26.602,2.049-37.248-0.365
			L86.669,139.582z M111.979,220.367l-10.074-32.158c4.424,0.727,9.16,1.224,14.384,1.223c6.541,0,13.855-0.793,22.239-2.853
			l10.698,34.145C133.463,224.458,122.637,222.777,111.979,220.367z M163.686,216.199l-10.693-34.135
			c14.5-5.553,23.754-12.528,31.014-19.564l10.072,32.149C186.698,202.71,178.764,210.267,163.686,216.199z M219.07,171.33
			c-5.183,3.381-9.385,6.952-13.107,10.575l-10.068-32.137c7.373-8.066,15.302-15.628,30.392-21.566l10.693,34.131
			C230.312,164.874,224.407,167.844,219.07,171.33z M232.225,181.12c2.872-1.559,5.964-2.978,9.289-4.282l6.546,20.897
			l-5.314,16.964L232.225,181.12z M250.05,326.592l5.942-18.916l5.924,18.916H250.05z M234.168,326.593h-10.602l46.918-149.755
			c3.324,1.304,6.417,2.723,9.29,4.283L234.168,326.593z M306.036,181.905c-3.72-3.622-7.921-7.193-13.102-10.572
			c-5.34-3.489-11.246-6.459-17.914-8.999l10.693-34.131c15.087,5.937,23.016,13.498,30.392,21.567L306.036,181.905z
			 M348.314,216.199c-15.078-5.933-23.012-13.49-30.392-21.55l10.072-32.149c7.258,7.034,16.512,14.008,31.014,19.564
			L348.314,216.199z M400.023,220.367c-10.659,2.409-21.485,4.09-37.247,0.358l10.698-34.145c8.381,2.061,15.695,2.854,22.237,2.854
			c5.224,0,9.962-0.497,14.388-1.224L400.023,220.367z M378.007,172.102l10.701-34.154c8.38,2.062,15.696,2.857,22.24,2.856
			c5.221,0,9.957-0.496,14.382-1.221l-10.074,32.156C404.61,174.151,393.794,175.834,378.007,172.102z M453.686,218.311
			c-15.076-3.71-26.656-3.256-36.635-1.618l10.076-32.161c10.659-2.409,21.487-4.09,37.256-0.361L453.686,218.311z M468.922,169.681
			c-15.075-3.71-26.656-3.259-36.634-1.62l10.072-32.15c10.659-2.412,21.485-4.095,37.256-0.362L468.922,169.681z M484.157,121.051
			c-15.144-3.763-26.531-3.326-36.63-1.634l10.067-32.135c10.66-2.412,21.485-4.099,37.258-0.368L484.157,121.051z"/>
	</g>
</g>
<g>
	<g>
		<path d="M129.194,353.461c-4.184,0-7.576,3.392-7.576,7.576v76.029c0,4.184,3.392,7.576,7.576,7.576
			c4.185,0,7.576-3.392,7.576-7.576v-76.029C136.77,356.853,133.378,353.461,129.194,353.461z"/>
	</g>
</g>
<g>
	<g>
		<path d="M282.54,353.461c-4.184,0-7.576,3.392-7.576,7.576v76.029c0,4.184,3.392,7.576,7.576,7.576s7.576-3.392,7.576-7.576
			v-76.029C290.116,356.853,286.724,353.461,282.54,353.461z"/>
	</g>
</g>
<g>
	<g>
		<path d="M234.478,353.46c-4.184,0-7.576,3.392-7.576,7.576v50.02l-34.431-54.088c-1.809-2.842-5.275-4.145-8.51-3.205
			c-3.234,0.943-5.457,3.905-5.457,7.274v39.802c-0.001,4.184,3.391,7.575,7.575,7.575c4.184,0,7.576-3.392,7.576-7.576v-13.792
			l34.431,54.088c1.416,2.225,3.85,3.509,6.391,3.508c0.704,0,1.417-0.099,2.119-0.303c3.234-0.943,5.457-3.905,5.457-7.274v-76.029
			C242.055,356.852,238.662,353.46,234.478,353.46z"/>
	</g>
</g>
<g>
	<g>
		<path d="M186.08,418.517c-4.184,0-7.576,3.392-7.576,7.576v10.973c0,4.184,3.392,7.576,7.576,7.576
			c4.184,0,7.576-3.392,7.576-7.576v-10.973C193.656,421.91,190.264,418.517,186.08,418.517z"/>
	</g>
</g>
<g>
	<g>
		<path d="M463.107,353.461c-4.184,0-7.576,3.392-7.576,7.576v31.354h-33.246v-31.354c0-4.184-3.392-7.576-7.576-7.576
			s-7.576,3.392-7.576,7.576v76.029c0,4.184,3.392,7.576,7.576,7.576s7.576-3.392,7.576-7.576v-29.524h33.246v29.524
			c0,4.184,3.392,7.576,7.576,7.576s7.576-3.392,7.576-7.576v-76.029C470.683,356.853,467.291,353.461,463.107,353.461z"/>
	</g>
</g>
<g>
	<g>
		<path d="M349.251,391.477h-2.36c-6.303,0-11.431-5.129-11.431-11.431s5.129-11.431,11.431-11.431h21.367
			c4.184,0,7.576-3.392,7.576-7.576c0-4.184-3.392-7.576-7.576-7.576h-21.367c-14.658,0-26.583,11.926-26.583,26.583
			s11.926,26.583,26.583,26.583h2.36c6.303,0,11.431,5.129,11.431,11.431c0,6.302-5.129,11.431-11.431,11.431h-21.367
			c-4.184,0-7.576,3.392-7.576,7.576s3.392,7.576,7.576,7.576h21.367c14.658,0,26.583-11.926,26.583-26.583
			C375.835,403.402,363.909,391.477,349.251,391.477z"/>
	</g>
</g>
<g>
	<g>
		<path d="M78.886,368.614c4.184,0,7.576-3.392,7.576-7.576c0-4.184-3.392-7.576-7.576-7.576H48.893
			c-4.184,0-7.576,3.392-7.576,7.576v76.029c0,4.184,3.392,7.576,7.576,7.576s7.576-3.392,7.576-7.576V405.07h18.312
			c4.184,0,7.576-3.392,7.576-7.576s-3.392-7.576-7.576-7.576H56.47v-21.304H78.886z"/>
	</g>
</g>
<g>
	<g>
		<path d="M422.68,326.592h-64.65c-4.184,0-7.576,3.392-7.576,7.576c0,4.184,3.392,7.576,7.576,7.576h64.65
			c4.184,0,7.576-3.392,7.576-7.576C430.256,329.984,426.864,326.592,422.68,326.592z"/>
	</g>
</g>
<g>
	<g>
		<path d="M422.68,456.359H89.321c-4.184,0-7.576,3.392-7.576,7.576c0,4.184,3.392,7.576,7.576,7.576H422.68
			c4.184,0,7.576-3.392,7.576-7.576C430.256,459.751,426.864,456.359,422.68,456.359z"/>
	</g>
</g>
<g>
	<g>
		<path d="M382.273,483.227H220.648c-4.184,0-7.576,3.392-7.576,7.576s3.392,7.576,7.576,7.576h161.625
			c4.184,0,7.576-3.392,7.576-7.576S386.457,483.227,382.273,483.227z"/>
	</g>
</g>
<g>
	<g>
		<path d="M195.394,483.227h-65.667c-4.184,0-7.576,3.392-7.576,7.576s3.392,7.576,7.576,7.576h65.667
			c4.184,0,7.576-3.392,7.576-7.576S199.578,483.227,195.394,483.227z"/>
	</g>
</g>
<g>
</g>
<g>
</g>
<g>
</g>
<g>
</g>
<g>
</g>
<g>
</g>
<g>
</g>
<g>
</g>
<g>
</g>
<g>
</g>
<g>
</g>
<g>
</g>
<g>
</g>
<g>
</g>
<g>
</g>
</svg>
