<svg height="512pt" viewBox="0 -68 512 512" width="512pt" xmlns="http://www.w3.org/2000/svg"><path d="m405.300781 72c-37.351562 0-37.351562-16-74.703125-16-37.324218 0-37.324218 16-74.648437 16-37.335938 0-37.335938-16-74.671875-16-37.324219 0-37.324219 16-74.648438 16-37.316406 0-37.316406-16-74.628906-16v112c37.3125 0 37.3125 16 74.628906 16 37.324219 0 37.324219-16 74.644532-16 37.335937 0 37.335937 16 74.675781 16 37.324219 0 37.324219-16 74.648437-16 37.351563 0 37.351563 16 74.699219 16 37.351563 0 37.351563-16 74.703125-16v-112c-37.351562 0-37.351562 16-74.699219 16zm0 0" fill="#eceaec"/><path d="m330.597656 112c-37.324218 0-37.324218 16-74.648437 16-37.335938 0-37.335938-16-74.671875-16-37.324219 0-37.324219 16-74.648438 16-37.316406 0-37.316406-16-74.628906-16v56c37.3125 0 37.3125 16 74.628906 16 37.324219 0 37.324219-16 74.644532-16 37.335937 0 37.335937 16 74.675781 16 37.324219 0 37.324219-16 74.648437-16 37.351563 0 37.351563 16 74.699219 16 37.351563 0 37.351563-16 74.703125-16v-56c-37.351562 0-37.351562 16-74.703125 16-37.347656 0-37.347656-16-74.699219-16zm0 0" fill="#dad8db"/><path d="m106.628906 128c18.691406 0 28.023438-4.015625 37.371094-8.019531v-56c-9.347656 4.003906-18.679688 8.019531-37.371094 8.019531-7.542968 0-13.519531-.671875-18.628906-1.71875v56.03125c5.109375 1.042969 11.085938 1.6875 18.628906 1.6875zm0 0" fill="#6f6571"/><path d="m144 175.980469c9.316406-3.996094 18.644531-7.980469 37.273438-7.980469 7.59375 0 13.59375.679688 18.726562 1.734375v-56.027344c-5.132812-1.054687-11.132812-1.707031-18.726562-1.707031-18.628907 0-27.957032 3.984375-37.273438 7.980469zm0 0" fill="#5d5360"/><path d="m88 126.3125c-20.164062-4.117188-26.230469-14.3125-56-14.3125v56c29.769531 0 35.835938 10.164062 56 14.28125zm0 0" fill="#5d5360"/><path d="m255.949219 128h.050781v-56c-.019531 0-.03125 0-.050781 0-29.746094 0-35.839844-10.136719-55.949219-14.265625v55.972656c20.109375 4.128907 26.203125 14.292969 55.949219 14.292969zm0 0" fill="#6f6571"/><path d="m256 183.996094c29.75-.011719 35.8125-10.175782 56-14.289063v-56.027343c-20.1875 4.109374-26.25 14.304687-56 14.316406zm0 0" fill="#5d5360"/><path d="m330.597656 112c18.710938 0 28.046875 4.015625 37.402344 8.023438v-56c-9.355469-4.007813-18.691406-8.023438-37.402344-8.023438-7.527344 0-13.492187.667969-18.597656 1.707031v55.972657c5.105469-1.039063 11.070312-1.679688 18.597656-1.679688zm0 0" fill="#6f6571"/><path d="m368 176.023438c9.320312 3.992187 18.65625 7.976562 37.300781 7.976562 7.578125 0 13.570313-.679688 18.699219-1.730469v-55.964843c-5.128906 1.050781-11.121094 1.695312-18.699219 1.695312-18.644531 0-27.980469-3.984375-37.300781-7.976562zm0 0" fill="#5d5360"/><path d="m424 70.269531v56.035157c20.140625-4.128907 26.230469-14.304688 56-14.304688v-56c-29.769531 0-35.859375 10.144531-56 14.269531zm0 0" fill="#6f6571"/><path d="m48 16c0-9.96875-9.113281-17.804688-19.464844-15.636719-5.796875 1.214844-10.636718 5.867188-12.042968 11.621094-1.441407 5.902344.402343 11.378906 4.050781 15.105469 2.136719 2.183594 3.457031 5.023437 3.457031 8.078125v292.832031h16v-292.78125c0-3.175781 1.492188-6.039062 3.667969-8.351562 2.679687-2.839844 4.332031-6.648438 4.332031-10.867188zm0 0" fill="#ffe07d"/><path d="m32 312c-8.835938 0-16 7.164062-16 16v40h32v-40c0-8.835938-7.164062-16-16-16zm0 0" fill="#ffd064"/><path d="m56 376h-48c-4.421875 0-8-3.582031-8-8s3.578125-8 8-8h48c4.421875 0 8 3.582031 8 8s-3.578125 8-8 8zm0 0" fill="#ffe07d"/><path d="m496 16c0-9.96875-9.113281-17.804688-19.464844-15.636719-5.796875 1.214844-10.636718 5.867188-12.042968 11.621094-1.441407 5.902344.402343 11.378906 4.050781 15.105469 2.136719 2.183594 3.457031 5.023437 3.457031 8.078125v292.832031h16v-292.78125c0-3.175781 1.492188-6.039062 3.667969-8.351562 2.679687-2.839844 4.332031-6.648438 4.332031-10.867188zm0 0" fill="#ffe07d"/><path d="m480 312c-8.835938 0-16 7.164062-16 16v40h32v-40c0-8.835938-7.164062-16-16-16zm0 0" fill="#ffd064"/><path d="m504 376h-48c-4.421875 0-8-3.582031-8-8s3.578125-8 8-8h48c4.421875 0 8 3.582031 8 8s-3.578125 8-8 8zm0 0" fill="#ffe07d"/></svg>