<?xml version="1.0" encoding="utf-8"?>
<!-- Generator: Adobe Illustrator 22.0.0, SVG Export Plug-In . SVG Version: 6.00 Build 0)  -->
<svg version="1.1" id="Layer_1" xmlns="http://www.w3.org/2000/svg" xmlns:xlink="http://www.w3.org/1999/xlink" x="0px" y="0px"
	 viewBox="0 0 250 300" style="enable-background:new 0 0 250 300;" xml:space="preserve">
<style type="text/css">
	.st0{fill:#C5493C;}
	.st1{fill:#E64C3C;}
	.st2{fill:#D8D6D5;}
	.st3{fill:#F7C91B;}
</style>
<g>
	<path class="st0" d="M125.9,28.8c11.9-0.4,22.9,2.6,33.4,8c7.2,3.7,13.7,8.4,19,14.5c3.8,4.5,7.7,9.2,10.7,14.2
		c3.7,6.2,6.5,13,7.5,20.2c0.9,6.3,1.9,12.8,1.4,19.1c-0.4,6.6-2,13.2-4,19.6c-3.2,10.3-6.9,20.6-10.9,30.6
		c-4.3,10.8-9.1,21.4-14,31.9c-6.3,13.5-12.6,27-19.3,40.3c-7.6,15.1-15.5,29.9-23.3,44.9c-0.2-0.7-0.4-1.5-0.4-2.2
		c0-36,0-71.9,0-107.9c0.7-0.2,1.5-0.4,2.2-0.5c3.4-0.4,6.9-0.5,10.2-1.2c32-6.5,53.4-38.1,47.2-70.3c-4.5-23.5-18.5-39.3-41-47
		c-5.9-2-12.5-2.2-18.7-3.3C125.9,36.2,125.9,32.5,125.9,28.8z"/>
	<path class="st1" d="M125.9,28.8c0,3.7,0,7.4,0,11.1c0,0,0,0.2,0,0.2c-7.6-0.4-14.9,1.1-22,3.8c-10.2,3.8-18.4,10.3-25.3,18.6
		C71.2,71,66.8,81.1,65.5,92.2c-2.6,22.5,4.5,41.6,22.2,56.2c11,9.1,23.8,13.7,38.2,13.4c0,0.1,0,0.3,0,0.4c0,36,0,71.9,0,107.9
		c0,0.7,0.3,1.5,0.4,2.2c-0.5-0.3-1.2-0.4-1.4-0.8c-3.1-5.8-6.3-11.5-9.3-17.4c-8.2-16.2-16.6-32.3-24.4-48.8
		c-7.8-16.5-15.2-33.1-22.3-49.9c-5.9-13.8-10.9-28-14.1-42.7c-1.6-7.7-1.6-15.3-0.3-23.1c1.8-10.9,5.6-20.8,12-29.8
		C77,45,90.8,35.2,108.2,30.8C114,29.3,119.9,28.2,125.9,28.8z"/>
	<path class="st2" d="M126,162.1c0-0.1-0.1-0.3,0-0.4c0-2.6,0-5.1,0-7.7c4.1-0.5,8.3-0.5,12.3-1.4c26.4-6.2,44.2-31.5,40.3-59
		c-2.2-15.1-9.6-27.1-21.9-36c-9.1-6.6-19.5-9.7-30.7-9.8c0-2.6,0-5.1,0-7.7c0,0,0-0.2,0-0.2c6.3,1,12.8,1.2,18.7,3.3
		c22.5,7.7,36.5,23.5,41,47c6.2,32.2-15.2,63.9-47.2,70.3c-3.4,0.7-6.8,0.8-10.2,1.2C127.4,161.7,126.7,161.9,126,162.1z"/>
	<path class="st1" d="M125.9,154c-12.6-0.1-23.9-4-33.6-12c-10.5-8.7-17-19.8-18.8-33.4C71,89.9,76.7,74,90.6,61.3
		c7.7-7.1,16.9-11.4,27.4-12.9c2.6-0.4,5.3-0.5,8-0.7c11.2,0.1,21.6,3.2,30.7,9.8c12.3,8.9,19.7,20.9,21.9,36
		c3.9,27.5-13.8,52.8-40.3,59C134.2,153.5,130,153.5,125.9,154z M125.9,114.8c5.6,4,11.1,8,17.1,12.3c-2-6.3-3.7-11.9-5.7-17.5
		c-0.7-2-0.4-3.1,1.4-4.3c4.9-3.3,9.6-6.9,14.8-10.7c-6.8,0-12.9-0.1-19,0c-1.5,0-2.3-0.4-2.8-2c-1.4-4.7-2.9-9.4-4.5-14
		c-0.3-1.1-0.8-2.1-1.4-3.8c-2.1,6.3-4,12-5.7,17.6c-0.5,1.7-1.3,2.3-3.1,2.2c-6-0.1-12,0-18.8,0c5.2,3.7,9.7,7.2,14.5,10.4
		c2.2,1.4,2.5,2.7,1.6,5.1c-1.9,5.4-3.6,10.9-5.5,17C114.9,122.8,120.4,118.8,125.9,114.8z"/>
	<path class="st3" d="M125.9,114.8c-5.6,4-11,8-17.1,12.4c2-6.1,3.6-11.6,5.5-17c0.8-2.4,0.5-3.7-1.6-5.1
		c-4.8-3.2-9.3-6.7-14.5-10.4c6.7,0,12.7-0.1,18.8,0c1.8,0,2.5-0.5,3.1-2.2c1.7-5.7,3.6-11.3,5.7-17.6c0.7,1.7,1.1,2.8,1.4,3.8
		c1.5,4.7,3.1,9.3,4.5,14c0.5,1.5,1.2,2,2.8,2c6.1-0.1,12.2,0,19,0c-5.3,3.8-10,7.4-14.8,10.7c-1.8,1.2-2.1,2.3-1.4,4.3
		c1.9,5.6,3.7,11.2,5.7,17.5C137,122.8,131.5,118.9,125.9,114.8z"/>
</g>
</svg>
